<?xml version="1.0" encoding="UTF-8" standalone="no"?>
<!-- Created with Inkscape (http://www.inkscape.org/) -->

<svg
   xmlns:dc="http://purl.org/dc/elements/1.1/"
   xmlns:cc="http://creativecommons.org/ns#"
   xmlns:rdf="http://www.w3.org/1999/02/22-rdf-syntax-ns#"
   xmlns:svg="http://www.w3.org/2000/svg"
   xmlns="http://www.w3.org/2000/svg"
   xmlns:sodipodi="http://sodipodi.sourceforge.net/DTD/sodipodi-0.dtd"
   xmlns:inkscape="http://www.inkscape.org/namespaces/inkscape"
   width="744.09448819"
   height="1052.3622047"
   id="svg2"
   version="1.1"
   inkscape:version="0.48.4 r9939"
   sodipodi:docname="drawing.svg">
  <defs
     id="defs4" />
  <sodipodi:namedview
     id="base"
     pagecolor="#ffffff"
     bordercolor="#666666"
     borderopacity="1.0"
     inkscape:pageopacity="0.0"
     inkscape:pageshadow="2"
     inkscape:zoom="1.4"
     inkscape:cx="298.97011"
     inkscape:cy="871.38321"
     inkscape:document-units="px"
     inkscape:current-layer="text2993"
     showgrid="false"
     inkscape:window-width="1920"
     inkscape:window-height="1031"
     inkscape:window-x="0"
     inkscape:window-y="25"
     inkscape:window-maximized="1" />
  <metadata
     id="metadata7">
    <rdf:RDF>
      <cc:Work
         rdf:about="">
        <dc:format>image/svg+xml</dc:format>
        <dc:type
           rdf:resource="http://purl.org/dc/dcmitype/StillImage" />
        <dc:title />
      </cc:Work>
    </rdf:RDF>
  </metadata>
  <g
     inkscape:label="Layer 1"
     inkscape:groupmode="layer"
     id="layer1">
    <flowRoot
       xml:space="preserve"
       id="flowRoot2985"
       style="fill:black;stroke:none;stroke-opacity:1;stroke-width:1px;stroke-linejoin:miter;stroke-linecap:butt;fill-opacity:1;font-family:Sans;font-style:normal;font-weight:normal;font-size:40px;line-height:125%;letter-spacing:0px;word-spacing:0px"><flowRegion
         id="flowRegion2987"><rect
           id="rect2989"
           width="89.285713"
           height="85.714287"
           x="167.85715"
           y="65.219322" /></flowRegion><flowPara
         id="flowPara2991" /></flowRoot>    <g
       transform="matrix(1.0579529,0.07122609,-0.06600275,0.94077807,0,0)"
       style="font-size:125.9839859px;font-style:normal;font-variant:normal;font-weight:bold;font-stretch:normal;line-height:125%;letter-spacing:0px;word-spacing:0px;fill:#000000;fill-opacity:1;stroke:none;font-family:Comic Sans MS;-inkscape-font-specification:Comic Sans MS Bold"
       id="text2993">
      <path
         d="m 289.88001,52.307055 c 10.41385,2.91037 32.30931,-8.54033 16.33203,-17.2547 -8.73429,-1.0835 -22.89379,7.32922 -20.69394,-7.73404 -2.63787,-14.71485 -2.02414,-30.6193696 -8.40715,-44.221495 -10.75572,-9.465304 -19.62465,7.8095854 -12.22198,16.75580544 2.53335,12.85823956 3.87381,25.96338956 5.84544,38.93749956 -12.88956,-5.30022 -22.43108,16.29034 -6.34205,16.70228 15.14629,-5.52 9.52935,17.10498 19.47212,23.66972 8.06985,8.50078 22.76777,9.05171 32.47464,2.70766 8.05357,-13.31499 -9.22195,-13.48371 -17.44827,-13.52548 -5.89687,-2.85546 -7.4759,-10.13426 -9.01084,-16.03725 z m -63.19746,11.0523 c 10.41384,2.91037 32.30932,-8.54033 16.33202,-17.2547 -8.73428,-1.08351 -22.89379,7.32922 -20.69394,-7.73404 -2.63784,-14.71486 -2.02413,-30.6193796 -8.40713,-44.2214996 -10.75573,-9.4653044 -19.62465,7.80958 -12.22199,16.7557996 2.53334,12.85824 3.87381,25.96339 5.84544,38.93751 -12.88956,-5.30023 -22.43108,16.29033 -6.34204,16.70228 15.14629,-5.52002 9.52934,17.10497 19.47211,23.66971 8.06985,8.50078 22.76776,9.05172 32.47464,2.70766 8.05356,-13.31499 -9.22195,-13.48371 -17.44825,-13.52547 -5.89691,-2.85546 -7.47591,-10.13427 -9.01086,-16.03725 z m -44.19299,-20.73928 c -1.61033,-11.46367 -3.11896,-22.97869 -4.44183,-34.4594396 -3.66549,-9.43613 -14.3386,-2.75917 -17.99024,0.72007 -12.57877,-1.88442 -30.5988,1.3348796 -34.18369,16.3099396 -1.08032,17.87583 -0.11207,36.63668 6.88895,53.03651 11.40973,10.19463 20.16937,-8.7337 12.30527,-17.85218 -1.22078,-10.60267 -6.76274,-25.67917 0.0791,-34.04937 9.11719,-2.83894 22.00257,-4.29018 19.30957,9.36706 1.68151,11.82156 2.56355,24.0977 6.88352,35.19345 10.31099,10.25724 20.47863,-7.14189 13.42597,-16.79992 -0.76559,-3.81972 -1.42193,-7.66884 -2.27669,-11.46612 m -66.93545,26.09851 c -7.40099,2.58018 -14.64589,3.02302 -12.69241,-7.07876 -1.96131,-12.97279 -1.34823,-26.76153 -5.895894,-39.07132 -7.938157,-12.15403 -21.420208,3.63238 -14.2269,13.64106 0.374163,11.64252 6.432304,28.46179 2.050746,37.32653 -10.872512,-1.50482 -23.374302,12.98631 -9.608983,18.68039 8.578629,-0.83972 16.734199,-5.17403 14.551777,7.6313 0.7882,17.513555 23.912244,6.167475 16.772654,-7.79941 -4.3493,-11.38359 18.59388,-1.1273 18.66041,-13.8597 0.96396,-5.65082 -4.0842,-10.80797 -9.6114,-9.47009 z m -61.28008,6.08855 c -6.776833,5.91607 -16.43948,12.01782 -26.286869,7.09961 3.795419,-10.99679 19.850229,-13.97696 25.968996,-24.61857 10.900411,-14.28835 -5.36939,-31.15978 -20.355632,-28.44773 -10.947261,0.70087 -27.1242925,3.25217 -30.3280055,16.05667 4.797373,16.99692 21.9406085,-5.17157 33.3537465,-0.19516 10.470746,7.70373 -12.037526,15.04619 -16.701646,20.82034 -11.8582995,7.14691 -11.6682515,27.65307 2.037981,31.61977 11.441191,2.971145 24.07163,1.17296 35.325337,-2.5493 7.618445,-3.16353 5.308892,-20.17497 -3.013908,-19.78563 z"
         id="path3006"
         inkscape:connector-curvature="0" />
    </g>
  </g>
</svg>
