<?xml version="1.0" encoding="UTF-8" standalone="no"?>
<!-- Created with Inkscape (http://www.inkscape.org/) -->

<svg
   xmlns:dc="http://purl.org/dc/elements/1.1/"
   xmlns:cc="http://creativecommons.org/ns#"
   xmlns:rdf="http://www.w3.org/1999/02/22-rdf-syntax-ns#"
   xmlns:svg="http://www.w3.org/2000/svg"
   xmlns="http://www.w3.org/2000/svg"
   xmlns:sodipodi="http://sodipodi.sourceforge.net/DTD/sodipodi-0.dtd"
   xmlns:inkscape="http://www.inkscape.org/namespaces/inkscape"
   width="744.09448819"
   height="1052.3622047"
   id="svg2"
   version="1.1"
   inkscape:version="0.48.4 r9939"
   sodipodi:docname="drawing.svg">
  <defs
     id="defs4" />
  <sodipodi:namedview
     id="base"
     pagecolor="#ffffff"
     bordercolor="#666666"
     borderopacity="1.0"
     inkscape:pageopacity="0.0"
     inkscape:pageshadow="2"
     inkscape:zoom="1.4"
     inkscape:cx="300.39868"
     inkscape:cy="871.38321"
     inkscape:document-units="px"
     inkscape:current-layer="text2988"
     showgrid="false"
     inkscape:window-width="1920"
     inkscape:window-height="1031"
     inkscape:window-x="0"
     inkscape:window-y="25"
     inkscape:window-maximized="1" />
  <metadata
     id="metadata7">
    <rdf:RDF>
      <cc:Work
         rdf:about="">
        <dc:format>image/svg+xml</dc:format>
        <dc:type
           rdf:resource="http://purl.org/dc/dcmitype/StillImage" />
        <dc:title />
      </cc:Work>
    </rdf:RDF>
  </metadata>
  <g
     inkscape:label="Layer 1"
     inkscape:groupmode="layer"
     id="layer1">
    <flowRoot
       xml:space="preserve"
       id="flowRoot2985"
       style="fill:black;stroke:none;stroke-opacity:1;stroke-width:1px;stroke-linejoin:miter;stroke-linecap:butt;fill-opacity:1;font-family:Sans;font-style:normal;font-weight:normal;font-size:40px;line-height:125%;letter-spacing:0px;word-spacing:0px"><flowRegion
         id="flowRegion2987"><rect
           id="rect2989"
           width="89.285713"
           height="85.714287"
           x="167.85715"
           y="65.219322" /></flowRegion><flowPara
         id="flowPara2991" /></flowRoot>    <g
       transform="matrix(1.0579529,0.07122609,-0.06600275,0.94077807,0,0)"
       style="font-size:125.9839859px;font-style:normal;font-variant:normal;font-weight:bold;font-stretch:normal;line-height:125%;letter-spacing:0px;word-spacing:0px;fill:#000000;fill-opacity:1;stroke:none;font-family:Comic Sans MS;-inkscape-font-specification:Comic Sans MS Bold"
       id="text2993">
      <path
         d="m 289.85278,53.06414 c 10.40044,2.970996 32.34873,-8.351741 16.41162,-17.159007 -8.72931,-1.134387 -22.92762,7.195553 -20.6583,-7.85446 -2.57002,-14.729815 -1.88294,-30.6303105 -8.20323,-44.269264 -10.71208,-9.52774 -19.66069,7.6949624 -12.29927,16.68408583 2.47406,12.87264717 3.75409,25.98524317 5.66589,38.97048317 -12.86514,-5.375212 -22.50623,16.159119 -6.41908,16.66484 15.17176,-5.431549 9.45048,17.160052 19.36299,23.78257 8.03065,8.547585 22.72605,9.184183 32.46219,2.896897 8.11498,-13.267667 -9.15978,-13.537091 -17.38592,-13.626816 -5.88371,-2.889756 -7.42917,-10.177557 -8.93689,-16.089329 z m -63.24851,10.683575 c 10.40043,2.970997 32.34875,-8.351741 16.41161,-17.159007 -8.72929,-1.134397 -22.92761,7.195553 -20.65829,-7.85446 -2.56999,-14.729825 -1.88293,-30.6303202 -8.20321,-44.2692687 -10.7121,-9.5277403 -19.66069,7.6949574 -12.29928,16.6840807 2.47405,12.872647 3.75408,25.985244 5.66589,38.970493 -12.86514,-5.375222 -22.50624,16.15911 -6.41908,16.66484 15.17177,-5.431568 9.45047,17.160042 19.36298,23.78256 8.03066,8.547586 22.72605,9.184193 32.46219,2.896898 C 261.04206,80.196183 243.7673,79.926759 235.54119,79.837044 229.65744,76.947288 228.112,69.659477 226.60427,63.747715 z M 182.50687,42.75139 c -1.55746,-11.472735 -3.01299,-22.996227 -4.28292,-34.4843662 -3.62198,-9.4572334 -14.32589,-2.8426805 -17.99358,0.6151743 -12.5701,-1.9576961 -30.605,1.1564639 -34.25895,16.1102049 -1.16275,17.869031 -0.28102,36.634999 6.64438,53.075182 11.36273,10.260858 20.20967,-8.615876 12.38761,-17.779945 -1.17189,-10.609489 -6.64433,-25.717873 0.23612,-34.047953 9.13029,-2.785711 22.02238,-4.161794 19.2664,9.479364 1.62699,11.831031 2.45242,24.111968 6.72123,35.23259 10.2637,10.317061 20.51159,-7.022308 13.50346,-16.721181 -0.74798,-3.824076 -1.38657,-7.676914 -2.22382,-11.47907 m -67.05588,25.707572 c -7.4129,2.536963 -14.65985,2.937556 -12.65978,-7.152553 C 100.88965,48.32255 101.56632,34.537771 97.075416,22.201815 89.193298,10.00185 75.638432,25.709223 82.785593,35.759556 c 0.320473,11.644374 6.301058,28.498489 1.878615,37.337437 -10.865586,-1.56816 -23.434217,12.849683 -9.69514,18.62385 8.582511,-0.789687 16.758079,-5.076332 14.516602,7.715916 0.707436,17.517661 23.88383,6.306701 16.80864,-7.701413 -4.29681,-11.408626 18.5991,-1.018874 18.72435,-13.750529 0.99002,-5.645042 -4.03437,-10.831476 -9.56774,-9.525855 z m -61.308232,5.731142 c -6.804123,5.876398 -16.49492,11.921648 -26.31964,6.94617 C 31.669184,70.161918 47.737756,67.275424 53.905604,56.669783 64.87192,42.445379 48.679903,25.479576 33.681137,28.104186 22.730631,28.741219 6.5418147,31.198142 3.2790492,43.983606 7.9980457,61.008016 25.243533,38.940086 36.633735,43.98289 47.068967,51.747444 24.526809,58.958484 19.836055,64.705282 7.9447834,71.782863 8.0402664,92.289555 21.728222,96.336045 33.155725,99.373804 45.794472,97.6493 57.065357,93.992749 64.6984,90.87372 62.467294,73.849294 54.142688,74.190104 z"
         id="path3006"
         inkscape:connector-curvature="0" />
      <g
         transform="matrix(0.83357844,-0.34514149,0.35811243,1.0513714,-8.170973,48.400298)"
         style="font-size:131.92446899px;font-weight:normal;line-height:125%;fill:#000000;font-family:Sans"
         id="text2988">
        <path
           id="path3001"
           style="font-variant:normal;font-weight:bold;font-stretch:normal;font-family:Comic Sans MS;-inkscape-font-specification:Comic Sans MS Bold"
           d="m 334.55209,98.185321 c -0.8922,-0.108818 -1.95808,-0.21714 -3.19765,-0.324918 -1.20475,-0.0604 -2.25319,-0.144893 -3.14531,-0.253601 -1.74186,-0.2124 -3.7295,-0.627844 -5.96291,-1.24632 3.82861,-17.019167 6.21315,-28.154863 7.15361,-33.407147 0.0985,-0.550666 0.30557,-1.585832 0.62113,-3.105489 0.30788,-1.477346 0.5453,-2.681937 0.71215,-3.613786 1.74428,-9.742187 -0.46362,-14.988758 -6.62371,-15.739734 -2.33664,-0.284859 -4.48353,0.189205 -6.44071,1.422187 -2.14233,1.296976 -3.41825,3.089106 -3.82777,5.376407 -0.27305,1.524851 -0.61885,3.819919 -1.03744,6.885185 -0.41862,3.065251 -0.76442,5.36031 -1.03743,6.885195 -0.91769,5.125207 -3.2643,16.049127 -7.03985,32.77178 -2.65675,-0.194092 -6.71089,-0.34207 -12.16242,-0.443955 -5.41663,-0.05444 -8.56482,2.375082 -9.44458,7.288575 -0.42469,2.37196 0.0223,4.48233 1.34085,6.33114 1.31861,1.84867 3.25242,2.92841 5.80143,3.23924 1.5719,0.19155 5.22851,0.37765 10.96986,0.55826 -0.28522,1.35017 -0.79334,3.58217 -1.52449,6.69596 -0.65532,2.69008 -1.11569,4.7764 -1.38113,6.25899 -0.42471,2.37193 0.0935,4.44771 1.55477,6.22736 1.46122,1.77947 3.42385,2.81946 5.88792,3.11994 6.28757,0.76643 10.37557,-4.12379 12.26401,-14.67068 l 0.80539,-5.22548 c 2.5657,0.70225 4.677,1.15441 6.33389,1.35647 4.88559,0.59553 8.27743,0.68442 10.17555,0.26665 3.61101,-0.77174 5.77297,-3.14836 6.48592,-7.12988 0.43224,-2.41443 -0.036,-4.52739 -1.40457,-6.33889 -1.36872,-1.811631 -3.32756,-2.872786 -5.87654,-3.183482 M 280.16381,76.817376 c 0.50807,-2.837978 1.2953,-7.113475 2.36167,-12.826493 1.06629,-5.71308 1.85355,-9.988564 2.36167,-12.826494 0.15921,-0.889523 0.46178,-2.216015 0.90787,-3.979455 0.48082,-1.71595 0.80089,-3.018669 0.96021,-3.908158 0.42465,-2.372012 -0.0974,-4.426619 -1.56614,-6.163821 -1.4188,-1.774391 -3.38144,-2.814373 -5.88792,-3.119938 -3.5262,-0.429879 -6.38086,0.845184 -8.56399,3.825166 -5.0815,-2.653727 -10.53237,-4.335367 -16.35259,-5.04491 -6.03271,-0.735447 -11.33703,-0.08363 -15.91296,1.955417 -5.15404,2.358124 -8.67766,6.278379 -10.57091,11.760791 -3.55287,10.387315 -6.07633,19.753168 -7.57039,28.097585 -0.98592,5.506399 -1.47489,11.874147 -1.46692,19.103246 -0.007,4.889889 2.43183,7.632668 7.31745,8.228338 2.46406,0.30033 4.7073,-0.22691 6.72975,-1.58172 2.01484,-1.312581 3.23462,-3.154838 3.65934,-5.526781 0.33368,-1.863791 0.53835,-4.825281 0.61401,-8.884501 0.11811,-4.054136 0.36298,-7.11894 0.73462,-9.1944 1.06933,-5.972416 2.19713,-11.180232 3.38341,-15.623459 1.22114,-4.39575 2.49696,-8.005735 3.82747,-10.829965 1.1455,-0.336468 2.22957,-0.572199 3.25222,-0.707204 1.06508,-0.129862 2.06496,-0.13781 2.99963,-0.02385 4.71566,0.574875 9.77732,1.884444 15.185,3.92873 -0.58401,3.261487 -1.26884,6.965158 -2.05452,11.111022 -0.97231,4.945417 -1.65188,8.498237 -2.03863,10.658502 -1.55476,8.683199 -2.49354,16.229636 -2.81634,22.639332 -0.26527,5.118134 2.17237,7.990584 7.31293,8.617324 2.50649,0.30551 4.79222,-0.21656 6.85719,-1.56618 2.06487,-1.34977 3.24596,-3.21839 3.54327,-5.605857 2.08227,-16.23659 3.01346,-23.740664 2.79358,-22.512265 M 189.27304,24.381077 c -7.85952,-0.958152 -15.096,0.908044 -21.70949,5.598594 -7.2568,5.131495 -11.91363,12.592555 -13.97052,22.383218 -1.97345,9.324669 -0.89724,17.982388 3.22863,25.973186 4.91038,9.428054 13.1221,14.84389 24.63519,16.247519 8.49671,1.035762 15.85833,-1.52933 22.08489,-7.695283 5.59532,-5.550515 9.20069,-12.836785 10.81615,-21.858845 1.75943,-9.826926 0.62709,-18.534766 -3.39705,-26.123561 -4.5174,-8.471296 -11.74667,-13.312905 -21.6878,-14.524828 m -5.64134,53.328031 c -5.2331,-0.594728 -8.92931,-3.469114 -11.08864,-8.623168 -1.82855,-4.334731 -2.26124,-9.191765 -1.29806,-14.571102 0.91007,-5.082908 3.05225,-8.803685 6.42654,-11.162338 2.68088,-1.880567 5.55074,-2.634384 8.6096,-2.26147 3.69604,0.450574 6.67982,2.091139 8.95136,4.921707 2.57798,3.300701 3.52573,7.463098 2.84328,12.487179 -1.88982,13.706334 -6.70451,20.109395 -14.44408,19.209192 M 115.60409,16.503789 c -5.94775,-0.72508 -11.78388,-0.376158 -17.508418,1.046772 -1.29131,-1.758848 -3.06277,-2.775524 -5.314384,-3.050019 -2.294131,-0.279677 -4.406132,0.241918 -6.336011,1.564794 -1.887412,1.328053 -3.035884,3.13573 -3.445414,5.42302 -0.182023,1.016575 -0.395114,2.570383 -0.639275,4.661435 -0.251756,2.133394 -0.468638,3.708379 -0.65065,4.724965 L 68.820881,102.86099 c -0.54604,3.04964 -0.35168,5.84337 0.583083,8.38121 1.16089,3.21443 3.313225,5.01333 6.457012,5.39669 4.545753,0.55407 7.258501,-1.62557 8.138253,-6.53891 0.09859,-0.55074 0.172886,-1.45061 0.222893,-2.69959 0.08489,-1.20163 0.176643,-2.07773 0.27524,-2.62828 l 4.357024,-24.334268 c 2.832836,2.119836 5.617861,3.779458 8.355086,4.978858 2.72961,1.241617 5.432658,2.025601 8.109148,2.351962 9.98363,1.217033 18.70396,-1.420466 26.16101,-7.912516 6.94868,-6.07804 11.28763,-13.945754 13.01685,-23.603162 1.75943,-9.826926 -0.0853,-18.556693 -5.53413,-26.189331 -5.54608,-7.817623 -13.33216,-12.337574 -23.35826,-13.559864 m -7.37321,54.999669 c -2.20917,-0.269371 -4.64443,-1.215488 -7.30578,-2.838334 -2.661388,-1.622951 -5.570098,-3.925239 -8.726157,-6.906855 0.677982,-4.02917 2.289585,-13.030081 4.834819,-27.002775 6.267698,-1.78955 11.483248,-2.430545 15.646688,-1.922961 5.39538,0.65773 9.5126,2.999142 12.35167,7.024227 2.83139,4.067387 3.75414,8.854322 2.76826,14.360806 -0.98596,5.506402 -3.22445,9.886302 -6.71545,13.13972 -3.64129,3.364848 -7.92597,4.746902 -12.85405,4.146172 M 67.955516,9.13681 C 66.001206,8.8985704 62.520699,10.638348 57.513984,14.35617 53.939134,12.015952 50.74823,10.198655 47.941265,8.9042585 45.141801,7.567489 42.701239,6.7722269 40.619577,6.5184417 30.380981,5.2702661 22.202273,7.0648728 16.083423,11.902289 10.007037,16.744861 5.9943025,24.609066 4.0452069,35.494913 2.2174602,45.702979 4.4361963,54.889522 10.701423,63.054562 c 6.257633,8.207282 14.654422,12.953176 25.190399,14.237676 4.035915,0.491958 8.913884,-0.08198 14.633923,-1.721804 6.907946,-1.971235 10.688057,-4.778189 11.340339,-8.420851 0.272968,-1.524921 0.0233,-2.918735 -0.748997,-4.181444 -0.121532,-1.746134 -0.07841,-3.926611 0.129371,-6.54143 0.242567,-2.567382 0.671032,-5.566516 1.285395,-8.997413 1.44849,-8.090276 3.064823,-13.844484 4.849001,-17.262632 0.195644,-0.365698 1.567139,-2.44916 4.114483,-6.250376 2.309022,-3.44075 3.509069,-5.41526 3.600148,-5.923539 C 75.497368,15.747804 74.96015,13.777913 73.483829,12.083065 72.049856,10.39339 70.207087,9.411309 67.955516,9.13681 M 44.347618,50.795823 c -0.242727,1.355385 -0.434578,2.911783 -0.575548,4.669194 -0.106149,1.804852 -0.16142,3.810717 -0.165815,6.017605 -0.925551,0.319933 -1.743345,0.52321 -2.453384,0.60983 -0.675211,0.134043 -1.246457,0.172607 -1.713744,0.115691 -5.77781,-0.704423 -10.427619,-3.586858 -13.94944,-8.647316 -3.529446,-5.018192 -4.763279,-10.492266 -3.701499,-16.422253 1.016242,-5.675902 2.801836,-9.829689 5.356786,-12.461359 2.547325,-2.589363 5.86021,-3.635422 9.938672,-3.138207 2.633954,0.321094 5.043407,1.047648 7.228367,2.17966 2.219781,1.179525 4.21886,2.743322 5.997243,4.691413 -3.079552,9.925636 -5.066761,17.387537 -5.961638,22.385742"
           inkscape:connector-curvature="0" />
        <g
           transform="matrix(1.0120431,0.26465666,0.31025888,-0.90696526,0,0)"
           style="font-size:100.81358337px;font-style:normal;line-height:125%;letter-spacing:0px;word-spacing:0px;fill:#000000;fill-opacity:1;stroke:none;font-family:Sans"
           id="text3004">
          <path
             id="path3015"
             style="font-variant:normal;font-weight:bold;font-stretch:normal;font-family:Comic Sans MS;-inkscape-font-specification:Comic Sans MS Bold"
             d="m 271.97208,-11.203337 c -7.84326,0 -14.25896,1.7495497 -19.24712,5.2486497 -5.51325,3.86743 -8.26987,9.31558 -8.26986,16.3444903 -10e-6,7.765534 2.18232,14.334014 6.54697,19.705479 4.85689,5.954564 11.40386,8.931869 19.64093,8.931916 5.71011,-4.7e-5 10.45215,-0.859473 14.22614,-2.578286 4.9553,-2.271392 7.43298,-5.801183 7.43303,-10.589391 -5e-5,-3.376354 -2.01829,-6.369007 -6.05472,-8.977961 -1.83779,-1.19708 -5.52969,-2.946636 -11.07572,-5.24865 L 258.58278,4.7728327 c 1.5752,-1.5961 3.47857,-2.79316 5.71015,-3.59119 2.23152,-0.79804996 4.79124,-1.19706996 7.67915,-1.19705996 4.39744,-10e-6 8.12216,0.84407 11.17417,2.53223996 2.72376,1.50399 4.90608,2.25599 6.54697,2.25601 3.41291,-2e-5 5.11939,-1.55006 5.11944,-4.65012996 -5e-5,-3.49911004 -2.74026,-6.35363004 -8.22064,-8.56359004 -4.59441,-1.8416297 -9.46771,-2.7624497 -14.61994,-2.7624497 M 270.643,27.885321 c -3.052,-3.7e-5 -5.66094,-0.951543 -7.82684,-2.854537 -2.16593,-1.903049 -3.90523,-4.757577 -5.21789,-8.563592 3.7083,1.503973 7.4002,2.992626 11.07571,4.465967 4.43026,1.872287 7.95807,3.606495 10.58346,5.202605 -2.19877,1.166337 -5.07024,1.749519 -8.61444,1.749557 m -30.66741,-3.775345 c -0.2954,-4.696193 -2.57617,-7.044271 -6.84233,-7.044252 -4.13497,-1.9e-5 -6.20243,1.995074 -6.2024,5.985307 l -0.24613,4.650129 C 219.3009,26.596143 214.01738,23.051004 210.83416,17.065725 l 0.0492,-23.1585323 c -2e-5,-1.74955 -0.63995,-3.19216 -1.91979,-4.3278397 -1.27988,-1.16636 -2.90431,-1.74954 -4.87332,-1.74954 -2.03465,0 -3.60986,0.61388 -4.72563,1.84162 -1.05015,1.1049897 -1.57522,2.5169097 -1.57521,4.2357697 l 0,30.1567293 c -1e-5,0.951478 0.0328,2.363398 0.0984,4.23576 0.0656,1.902975 0.0984,3.330243 0.0985,4.281796 -1e-5,1.718813 0.54147,3.146072 1.62443,4.281796 1.11577,1.166318 2.69098,1.7495 4.72564,1.749547 3.64267,-4.7e-5 5.80858,-1.749594 6.49775,-5.248651 5.80857,4.051542 12.25709,6.077341 19.34558,6.077388 6.56334,-4.7e-5 9.84503,-4.082333 9.84507,-12.246858 -4e-5,-1.565422 -0.0164,-2.59367 -0.0492,-3.084734 m -73.93651,-35.911843 c -6.07115,0 -11.28904,1.9490597 -15.65367,5.8471797 -4.79128,4.26645 -7.30177,9.96016 -7.53149,17.0811503 -0.22972,6.783322 1.7557,12.830013 5.95627,18.140085 4.98816,6.261503 11.92894,9.392282 20.82234,9.392329 6.56335,-4.7e-5 11.78124,-2.455554 15.65367,-7.366531 3.47855,-4.41996 5.21784,-9.898808 5.21789,-16.436572 -5e-5,-7.1210013 -2.03469,-13.1983813 -6.10394,-18.2321713 -4.5616,-5.61698 -10.68195,-8.4254697 -18.36107,-8.4254697 m 2.95352,38.305968 c -4.0365,0.03068 -7.21974,-1.6882 -9.54972,-5.156579 -1.96904,-2.91594 -2.95354,-6.322962 -2.95353,-10.221059 -1e-5,-3.6832803 1.11576,-6.5071103 3.34733,-8.4715103 1.77209,-1.56539 3.83956,-2.34809996 6.2024,-2.34808996 2.85504,-1e-5 5.33272,0.90545996 7.43303,2.71640996 2.3956,2.11786 3.67546,4.98774 3.83958,8.6096403 0.42658,9.883394 -2.34644,14.840453 -8.31909,14.871188 m -88.851808,5.156572 c 4.955331,5.371381 9.648142,8.057095 14.078462,8.057141 5.05377,-4.6e-5 8.762066,-1.795639 11.124926,-5.386776 2.00179,1.657428 4.21693,2.900525 6.64543,3.72931 2.4284,0.828681 5.05375,1.24305 7.87606,1.243097 6.43205,-4.7e-5 10.7967,-2.992701 13.09395,-8.977961 0.45937,-1.227787 1.16493,-5.386805 2.1167,-12.477055 0.9188,-4.972436 2.1002,-13.2597763 3.54422,-24.8620463 0.13119,-1.74956 -0.50874,-3.1921697 -1.91979,-4.3278397 -1.4112,-1.13567 -3.06845,-1.7035 -4.97176,-1.70351 -3.77401,10e-6 -5.98915,1.74955 -6.64543,5.2486597 -0.59076,3.16146 -1.19788,7.62741004 -1.82134,13.39787 -0.6564,6.3229243 -1.19787,10.8042213 -1.62443,13.4439283 -0.88612,5.494168 -2.0183,8.241266 -3.39656,8.241304 -0.75484,-3.8e-5 -2.47773,-0.705998 -5.16866,-2.11788 -2.69104,-1.411948 -4.66005,-2.624358 -5.90705,-3.63722 -4e-5,-3.499132 0.44299,-8.532923 1.32909,-15.1013923 0.91883,-6.72196996 1.37826,-11.75576 1.37831,-15.1014 -5e-5,-1.7495397 -0.63998,-3.2074997 -1.91979,-4.3738697 -1.27991,-1.16636 -2.90434,-1.74954 -4.87331,-1.74955 -1.96906,1e-5 -3.593486,0.58319 -4.873316,1.74955 -1.27989,1.16637 -1.91982,2.62433 -1.91979,4.3738697 -3e-5,3.49911 -0.41024,8.64033004 -1.23063,15.42369 -0.78764,6.8140133 -1.18144,11.9705823 -1.18141,15.4697143 -3e-5,1.964368 -0.18053,3.529763 -0.54148,4.696165 C 89.526394,24.861948 85.703226,21.439577 81.86367,16.651369 81.699566,16.436482 81.420622,16.114194 81.026838,15.684505 80.895552,9.4843227 80.829918,4.6193527 80.829937,1.0895727 c -1.9e-5,-0.85944996 -0.03283,-2.02580996 -0.09845,-3.49911 -0.06565,-1.44261 -0.09847,-2.51691 -0.09845,-3.22286 -1.8e-5,-1.65747 -0.721989,-2.96195 -2.165916,-3.91347 -1.312692,-0.8901197 -2.937128,-1.3351797 -4.873313,-1.3351797 -2.789447,0 -4.676418,1.1356697 -5.660919,3.4070197 -0.689161,1.53469 -1.033738,3.97485 -1.033733,7.32049004 l 0,17.12718526 c -5e-6,1.53467 -0.06564,3.775318 -0.196902,6.721964 -0.131272,2.977268 -0.196906,5.233265 -0.196901,6.768 -6e-6,2.731712 0.525065,5.202568 1.575211,7.412575 1.279853,2.7624 3.084782,4.143623 5.414792,4.14367 1.837735,-4.7e-5 3.478579,-0.675319 4.922538,-2.025799 1.443927,-1.319877 2.165899,-2.777842 2.165917,-4.373877 -1.8e-5,0.644529 -0.147694,-0.67531 -0.443027,-3.959508"
             inkscape:connector-curvature="0" />
        </g>
      </g>
    </g>
  </g>
</svg>
