<?xml version="1.0" encoding="UTF-8" standalone="no"?>
<!-- Generator: Adobe Illustrator 16.0.0, SVG Export Plug-In . SVG Version: 6.00 Build 0)  -->

<svg
   xmlns:dc="http://purl.org/dc/elements/1.1/"
   xmlns:cc="http://creativecommons.org/ns#"
   xmlns:rdf="http://www.w3.org/1999/02/22-rdf-syntax-ns#"
   xmlns:svg="http://www.w3.org/2000/svg"
   xmlns="http://www.w3.org/2000/svg"
   xmlns:sodipodi="http://sodipodi.sourceforge.net/DTD/sodipodi-0.dtd"
   xmlns:inkscape="http://www.inkscape.org/namespaces/inkscape"
   version="1.1"
   id="Capa_1"
   x="0px"
   y="0px"
   width="97.75px"
   height="97.75px"
   viewBox="0 0 97.75 97.75"
   style="enable-background:new 0 0 97.75 97.75;"
   xml:space="preserve"
   inkscape:version="0.48.4 r9939"
   sodipodi:docname="youtube.svg"><metadata
     id="metadata53"><rdf:RDF><cc:Work
         rdf:about=""><dc:format>image/svg+xml</dc:format><dc:type
           rdf:resource="http://purl.org/dc/dcmitype/StillImage" /></cc:Work></rdf:RDF></metadata><defs
     id="defs51" /><sodipodi:namedview
     pagecolor="#ffffff"
     bordercolor="#666666"
     borderopacity="1"
     objecttolerance="10"
     gridtolerance="10"
     guidetolerance="10"
     inkscape:pageopacity="0"
     inkscape:pageshadow="2"
     inkscape:window-width="1920"
     inkscape:window-height="1031"
     id="namedview49"
     showgrid="false"
     inkscape:zoom="2.4143223"
     inkscape:cx="49.70339"
     inkscape:cy="48.875"
     inkscape:window-x="0"
     inkscape:window-y="25"
     inkscape:window-maximized="1"
     inkscape:current-layer="g5" /><g
     id="g3"><g
       id="g5"><path
         id="path17"
         d="m 67.17,55.046 c -1.686,0 -2.995,0.619 -3.947,1.864 -0.699,0.92 -1.018,2.342 -1.018,4.285 v 6.371 c 0,1.933 0.357,3.365 1.059,4.276 0.951,1.242 2.264,1.863 3.988,1.863 1.721,0 3.072,-0.651 3.984,-1.972 0.4,-0.584 0.66,-1.245 0.77,-1.975 0.031,-0.33 0.07,-1.061 0.07,-2.124 v -0.479 h -3.361 c 0,1.32 -0.043,2.053 -0.072,2.232 -0.188,0.881 -0.662,1.321 -1.473,1.321 -1.132,0 -1.686,-0.84 -1.686,-2.522 V 64.96 h 6.592 v -3.767 c 0,-1.943 -0.329,-3.365 -1.02,-4.285 -0.921,-1.242 -2.232,-1.862 -3.886,-1.862 z m 1.612,7.172 h -3.296 v -1.683 c 0,-1.682 0.553,-2.523 1.654,-2.523 1.09,0 1.642,0.842 1.642,2.523 v 1.683 z M 48.875,0 C 21.882,0 0,21.882 0,48.875 0,75.868 21.882,97.75 48.875,97.75 75.868,97.75 97.75,75.868 97.75,48.875 97.75,21.882 75.868,0 48.875,0 z m 5.436,22.86 h 3.321 v 13.532 c 0,0.781 0,1.186 0.04,1.295 0.073,0.516 0.335,0.78 0.781,0.78 0.666,0 1.365,-0.516 2.104,-1.559 V 22.86 h 3.33 v 18.379 h -3.33 v -2.004 c -1.326,1.52 -2.59,2.257 -3.805,2.257 -1.072,0 -1.812,-0.435 -2.146,-1.365 -0.184,-0.557 -0.295,-1.436 -0.295,-2.733 V 22.86 l 0,0 z m -12.578,5.993 c 0,-1.965 0.334,-3.401 1.042,-4.33 0.921,-1.257 2.218,-1.885 3.878,-1.885 1.668,0 2.964,0.628 3.885,1.885 0.698,0.928 1.032,2.365 1.032,4.33 v 6.436 c 0,1.954 -0.334,3.403 -1.032,4.322 -0.921,1.254 -2.217,1.881 -3.885,1.881 -1.66,0 -2.957,-0.627 -3.878,-1.881 -0.708,-0.919 -1.042,-2.369 -1.042,-4.322 v -6.436 z m -8.906,-12.277 2.622,9.685 2.519,-9.685 h 3.735 L 37.26,31.251 v 9.989 h -3.692 v -9.989 c -0.335,-1.77 -1.074,-4.363 -2.259,-7.803 -0.778,-2.289 -1.589,-4.585 -2.367,-6.872 h 3.885 z m 42.359,58.485 c -0.668,2.899 -3.039,5.039 -5.894,5.358 -6.763,0.755 -13.604,0.759 -20.42,0.755 -6.813,0.004 -13.658,0 -20.419,-0.755 -2.855,-0.319 -5.227,-2.458 -5.893,-5.358 -0.951,-4.129 -0.951,-8.638 -0.951,-12.89 0,-4.252 0.012,-8.76 0.962,-12.89 0.667,-2.9 3.037,-5.04 5.892,-5.358 6.762,-0.755 13.606,-0.759 20.421,-0.755 6.813,-0.004 13.657,0 20.419,0.755 2.855,0.319 5.227,2.458 5.896,5.358 0.948,4.13 0.942,8.638 0.942,12.89 0,4.252 -0.004,8.761 -0.955,12.89 z M 46.653,38.466 c 1.073,0 1.588,-0.851 1.588,-2.551 v -7.731 c 0,-1.701 -0.515,-2.548 -1.588,-2.548 -1.074,0 -1.59,0.848 -1.59,2.548 v 7.731 c 0,1.701 0.516,2.551 1.59,2.551 z m -2.829,30.701 c -0.731,1.033 -1.422,1.542 -2.084,1.542 -0.44,0 -0.691,-0.259 -0.771,-0.771 -0.03,-0.106 -0.03,-0.508 -0.03,-1.28 v -13.39 h -3.296 v 14.379 c 0,1.285 0.111,2.153 0.291,2.705 0.331,0.922 1.063,1.354 2.123,1.354 1.213,0 2.457,-0.732 3.767,-2.234 v 1.984 h 3.298 V 55.268 h -3.298 v 13.899 z m 12.85,-14.121 c -1.212,0 -2.343,0.662 -3.406,1.972 v -7.972 h -3.295 v 24.409 h 3.295 v -1.762 c 1.103,1.361 2.233,2.013 3.406,2.013 1.311,0 2.193,-0.69 2.633,-2.044 0.221,-0.771 0.334,-1.982 0.334,-3.665 v -7.242 c 0,-1.722 -0.113,-2.924 -0.334,-3.655 -0.439,-1.364 -1.323,-2.054 -2.633,-2.054 z m -0.33,13.209 c 0,1.644 -0.482,2.454 -1.434,2.454 -0.541,0 -1.092,-0.259 -1.643,-0.811 V 58.814 c 0.551,-0.545 1.102,-0.803 1.643,-0.803 0.951,0 1.434,0.842 1.434,2.482 v 7.762 z m -30.668,-15.773 3.875,0 0,20.973 3.666,0 0,-20.973 3.947,0 0,-3.435 -11.488,0 z" /></g></g><g
     id="g19" /><g
     id="g21" /><g
     id="g23" /><g
     id="g25" /><g
     id="g27" /><g
     id="g29" /><g
     id="g31" /><g
     id="g33" /><g
     id="g35" /><g
     id="g37" /><g
     id="g39" /><g
     id="g41" /><g
     id="g43" /><g
     id="g45" /><g
     id="g47" /></svg>